Patient4_TMGait_0pt6_01_right_09_EMG.mot
version=1
nRows=30
nColumns=33
inDegrees=no
endheader
time	1LAddLong	2LGlutMax	3LGlutMed	4LIliopsoas	5LSemiMemb	6LBicFemLong	7LRecFem	8LVastMed	9LVastLat	10LGasMed	11LTibAnt	12lTibPost	13LPeroneusLong	14LSol	15LExtDigLong	16LFlexDigLong	17RAddLong	18RGlutMax	19RGlutMed	20RIliopsoas	21RSemiMemb	22RBicFemLong	23RRecFem	24RVastMed	25RVastLat	26RGasMed	27RTibAnt	28RTibPost	29RPeroneusLong	30RSol	31RExtDigLong	32RFlexDigLong
11.19	-0.01297	0.091705	-0.008087	0.013733	-0.056458	-0.042725	0.015564	0.020599	-0.21545	0.013733	0.19089	0.00946	0.070648	0.006561	0.099945	-0.000153	0.015564	-0.12665	-0.087585	-0.068054	0.072784	-0.027161	-0.000153	-0.038605	-0.009308	0.001678	-0.18616	-0.000153	0.77301	0.063019	-0.020752	0.002747
11.191	0.014648	0.11246	0.084076	0.00351	0.20554	-0.19898	-0.008087	0.014801	-0.21011	-0.010223	0.16937	0.008698	0.011292	0.041656	0.13489	0.005646	0.014954	-0.16998	-0.12283	-0.061035	0.069122	-0.074463	0.001068	-0.052338	-0.021362	-0.004883	-0.65552	-0.005951	0.65384	0.12878	-0.021362	-0.011597
11.192	0.03006	0.10681	0.20157	0.006866	0.17456	-0.054321	0.009308	-0.002899	-0.14694	-0.021973	0.009766	0.005188	0.11215	0.040588	0.31158	-0.005951	0.011444	-0.17944	-0.1062	-0.074463	0.081024	-0.065308	-0.011292	-0.038757	-0.041046	0.004578	-0.4808	-0.001831	-0.12253	0.18249	-0.02182	-0.012817
11.193	0.02121	0.073395	0.10452	-0.002289	0.022125	0.20111	0.028229	-0.006866	-0.112	-0.014648	-0.000153	0.004883	0.015411	0.089874	-0.12848	0.003204	0.009613	-0.15625	-0.08606	-0.076599	0.10452	-0.025787	-0.12314	-0.060883	-0.005188	0.003052	-0.36468	0.001068	-0.64941	0.25116	-0.021515	-0.003052
11.194	0.015717	0.075684	0.070801	-0.007935	0.019073	0.06012	0.080872	0.001373	-0.037079	0.016174	0.007935	0.003204	-0.15366	0.051727	0.63644	0.003967	0.018463	-0.18005	-0.12848	-0.11337	0.10605	-0.042572	-0.1564	0.054169	-0.002289	0.00061	-0.12421	0.005188	-0.41214	0.14618	-0.023041	-0.007019
11.195	-0.002899	0.11551	0.021667	-0.007935	0.023804	0.12573	0.092316	0.009613	0.075684	-0.013428	-0.034332	0.001373	0.12528	0.028534	0.15381	0.00473	0.024109	-0.21668	-0.1857	-0.044861	0.095978	-0.003357	-0.045929	0.13855	0.006714	-0.001526	0.046234	0.000305	-0.47409	0.082245	-0.021973	-0.016632
11.196	-0.027924	0.12909	0.027008	0.007629	0.026093	0.24933	0.053406	0.018005	0.12528	-0.093689	-0.063019	0.005341	0.99503	0.050201	-0.35324	0.002899	0.010986	-0.177	-0.15243	0.000153	0.09552	0.018616	-0.029449	0.13229	-0.016937	-0.003204	0.25909	0.001984	-0.63278	0.046692	-0.017395	-0.002747
11.197	-0.036774	0.13336	0.066528	0.003967	0.049438	0.19257	0.047455	0.019073	0.15839	-0.084534	-0.14236	0.012665	0.45502	0.2063	-0.01236	0.011597	0.013428	-0.18265	-0.10132	-0.011597	0.09964	0.019836	-0.005493	0.11871	-0.000153	-0.008392	0.29434	0.001526	0.36484	0.10284	-0.014801	-0.00946
11.198	-0.053711	0.13245	-0.003357	-0.016174	0.015259	0.15793	0.008392	0.018158	0.1651	-0.007935	-0.16892	0.005951	-0.15243	0.14557	-0.05661	-0.00473	0.025635	-0.17975	-0.015411	0.057068	0.11353	0.001831	0.065613	-0.014038	-0.016174	-0.005035	0.16022	-0.00061	1.0887	0.003967	-0.020599	-0.00885
11.199	-0.06134	0.14771	0.018768	-0.000305	-0.032654	0.13748	-0.11322	0.020294	0.1593	0.031891	-0.1152	0.000763	-0.32028	0.068207	-0.052338	-0.002747	0.015259	-0.1564	0.18112	0.046997	0.10605	0.010529	0.053253	-0.12039	-0.008392	-0.011139	0.067139	0.00061	0.32089	0.021057	-0.019684	-0.015564
11.2	-0.041046	0.14832	0.077515	0.007782	-0.003662	-0.045471	-0.007629	-0.001678	0.023041	0.024414	-0.000153	0.003052	-0.39169	-0.007629	0.27695	0.000763	0.027618	-0.17792	0.14832	-0.040588	0.094604	0.003052	0.028839	-0.25803	-0.016632	-0.016785	0.20355	0.002441	0.94193	0.083771	-0.020905	-0.013428
11.201	-0.004425	0.11185	0.031433	0	0.015717	-0.23834	0.074768	-0.00824	-0.13748	0.01297	0.036011	0.003815	-0.47974	-0.088654	-0.1593	0.000763	0.014801	-0.14069	-0.14954	-0.000305	0.10223	0.031586	-0.009003	-0.17441	-0.007782	-0.015259	0.34622	0.00473	0.33279	0.018616	-0.015717	-0.013123
11.202	0.006866	0.13214	0.01358	0.011292	0.09491	-0.28595	0.096588	-0.011749	-0.32822	0.001984	0.018005	0.00885	-0.12802	-0.17792	-0.34058	0.009308	0.010529	-0.13657	0.034943	-0.005493	0.097046	0.04303	-0.009766	-0.15411	-0.024872	-0.010071	0.36133	0.000763	0.43304	-0.034027	-0.008392	-0.010223
11.203	0.003662	0.11612	0.011292	0.009613	0.086517	-0.12131	0.018158	-0.000153	-0.31281	-0.008698	-0.11322	0.00824	0.17456	-0.18707	-0.28351	0.00412	0.020905	-0.12116	0.23575	0.081024	0.095367	0.046844	-0.025787	-0.12192	-0.014496	-0.005798	0.17029	0.005188	0.7016	-0.073242	-0.017242	-0.002136
11.204	0.00824	0.10468	0.007782	0.015259	0.000916	-0.008698	-0.1091	0.020142	-0.07309	-0.007935	-0.071259	0.003357	-0.20294	-0.052795	-0.12375	0.011902	0.027313	-0.12695	-0.17609	0.067902	0.078583	0.050812	-0.000763	-0.14725	-0.000763	0.000153	0.19333	0.000458	0.061646	-0.076752	-0.019531	-0.003204
11.205	0.020905	0.10956	0.055389	0.00885	0.052795	0.016174	-0.20371	0.01709	0.094452	0.020447	0.007477	0.003052	-0.25711	-0.013275	-0.080719	-0.000458	0.029449	-0.1358	-0.78568	0.043488	0.08606	0.040588	0.025635	-0.11322	-0.005951	-0.004883	-0.09201	0.004272	-0.61279	0.12711	-0.009766	-0.012207
11.206	0.032349	0.13092	0.068359	0.006866	0.036621	0.11032	-0.24262	0.00412	0.22751	0.10193	-0.000305	0.00412	-0.10788	-0.068359	-0.11124	0.003815	0.031738	-0.1326	-0.31708	-0.13626	0.076294	0.080414	-0.041504	-0.11643	0.005951	-0.014343	-0.19165	0.000916	-0.99884	0.2681	-0.012512	-0.015564
11.207	0.031891	0.10468	0.077667	0.014496	0.07309	0.22369	-0.10681	-0.004425	0.26779	0.15686	-0.070038	0.004425	0.023041	-0.057068	-0.055847	0.001221	0.020905	-0.087585	1.1998	-0.26245	0.089874	0.13931	-0.016632	-0.093231	0.032959	-0.016174	0.10086	-0.001678	-0.84991	0.13428	-0.017242	-0.015259
11.208	0.014648	0.10666	0.042572	0.016937	0.094757	0.2803	0.023499	-0.007324	0.10681	0.20142	-0.011444	0.001526	-0.023499	-0.039673	0.025787	-0.009308	0.024872	-0.082397	1.3129	-0.15656	0.095825	0.13855	-0.01297	-0.05722	0.042114	-0.002441	0.28946	-0.000916	-1.1293	-0.000458	-0.017395	-0.016174
11.209	0.019073	0.11475	0.006409	0.019989	0.054016	0.28168	0.064545	-0.021515	-0.078583	0.21439	0.05661	0.006256	-0.11032	-0.029755	0.079041	-0.014343	0.023041	-0.15335	-0.090485	0.033112	0.093231	0.14771	-0.041046	0.006104	0.016022	0.005646	0.072784	-0.005493	0.91873	-0.049133	-0.011139	-0.014954
11.21	0.006561	0.11993	-0.005798	0.019836	0.062714	0.10239	0.095978	-0.019531	-0.15808	0.13046	-0.048676	0.006256	-0.096893	0.017853	0.32837	-0.007629	-0.001221	-0.19638	-0.89249	0.12543	0.089417	0.15274	-0.082397	-0.019989	-0.010071	0.00946	-0.043335	0.002594	2.1291	-0.12299	-0.013428	-0.024109
11.211	0.002289	0.20248	-0.010986	-0.01709	0.022125	-0.10284	0.14358	-0.024719	-0.041199	-0.11124	-0.010223	0.00473	-0.037384	0.11307	0.19577	-0.00885	-0.008087	-0.1767	-0.49576	0.048218	0.087738	0.1358	-0.06546	-0.024719	-0.028229	0.007782	-0.068665	0.000916	0.20828	-0.085907	-0.013428	-0.015106
11.212	-0.00473	0.23148	-0.032654	-0.031433	0.018463	-0.12238	0.15747	-0.01358	0.12299	-0.1831	0.031433	0.010223	-0.016327	0.17105	1.2744	-0.030212	-0.01236	-0.21515	0.005341	0.073395	0.08728	0.12848	-0.055847	-0.072632	-0.050049	-0.004272	-0.025787	-0.003967	-0.22201	0.056763	-0.017395	-0.019684
11.213	0.011139	0.23712	-0.048828	-0.018463	-0.028992	-0.20355	0.15915	0.014496	0.18112	-0.10651	0.078888	0.00824	-0.002747	0.24506	0.26901	-0.98648	-0.014343	-0.27847	0.59952	0.070801	0.086975	0.13229	-0.025024	-0.029144	-0.0354	-0.005493	-0.012512	-0.00351	-0.70007	-0.017242	-0.010376	-0.02243
11.214	0.038147	0.31921	0.011139	0.044098	-0.021973	-0.48019	0.14572	0.022125	0.18997	-0.11231	0.19699	0.007477	0.068359	0.34302	-0.30334	0.21851	-0.024414	-0.22095	0.39169	0.040283	0.092163	0.12222	-0.14206	0.01358	0.019531	-0.008087	-0.011292	-0.001373	-0.49789	0.001984	-0.012512	-0.023041
11.215	0.042267	0.43045	0.058899	0.048523	0.064697	-0.50842	0.10315	0.021057	0.24277	-0.07782	0.33295	-0.016174	0.041962	0.31525	-0.43045	0.7341	-0.036469	-0.18539	0.21545	0.020905	0.081329	0.1033	-0.10941	0.065613	0.11459	-0.007629	-0.01236	-0.000916	1.2428	-0.020905	-0.014038	-0.027161
11.216	0.034485	0.50598	0.058746	0.027771	-0.005035	-0.12512	0.0177	0.023499	0.2713	-0.027771	0.24521	0.014191	-0.046387	0.31723	-0.20447	-0.18005	-0.028534	-0.22079	-0.092163	-0.006104	0.071564	0.085754	-0.080719	0.088196	0.089722	-0.012817	-0.019836	-0.00412	0.002899	0.00946	-0.004272	-0.027466
11.217	0.01358	0.51926	0.047607	0.017548	-0.016479	0.09079	-0.079041	0.043488	0.18585	-0.031891	0.001831	0.007935	-0.059052	0.31601	0.093689	-0.20889	-0.013733	-0.20477	-0.11948	-0.006714	0.045319	0.10025	-0.095673	0.078888	0.008545	-0.012665	-0.011444	-0.001221	-0.69046	0.083313	-0.007172	-0.022125
11.218	-0.004425	0.55618	0.045013	-0.000305	0.063019	0.19424	-0.2417	0.037842	0.092621	0.004883	-0.030212	0.001984	-0.035858	0.16571	-0.24872	0.59723	0.009766	-0.22446	-0.17654	0.097046	0.043945	0.07309	-0.063324	0.029907	-0.078583	-0.007477	0.058441	0.000916	-0.53268	0.081482	-0.00885	-0.020294
11.219	-0.00824	0.60654	0.073242	-0.005035	-0.007477	0.21378	-0.36652	0.028839	0.052032	-0.013885	-0.20248	0.014191	0.020752	-0.081635	-0.83725	0.062103	0.00473	-0.19318	-0.024261	0.016937	0.031586	0.061798	-0.103	-0.029755	-0.09079	-0.001984	0.0914	-0.00061	-0.055542	-0.013123	-0.011902	-0.015106
